<svg xmlns="http://www.w3.org/2000/svg" width="96" height="46" fill="none" viewBox="0 0 96 46">
  <path fill="#000" d="M49.501 12.84c.057-.11.153-.158.29-.147.147.01.295.054.442.13.16.076.29.168.392.277.102.097.136.178.102.244a2.662 2.662 0 0 1-.119.26 67.385 67.385 0 0 1-1.107 2.278 27.14 27.14 0 0 1-1.55 2.701c-.578.879-1.174 1.579-1.787 2.1-.613.51-1.204.661-1.771.455-.704-.271-1.238-.63-1.601-1.074-.363-.445-.505-1.069-.426-1.871-.011.01-.017.021-.017.032a37.123 37.123 0 0 1-1.14 1.595c-.375.499-.88 1.074-1.516 1.725-.363.325-.851.477-1.465.455a3.708 3.708 0 0 1-1.685-.455c-.523-.282-.818-.657-.886-1.123-.034-.814.16-1.936.58-3.368a32.813 32.813 0 0 1 1.43-4.036c.533-1.269.959-2.056 1.277-2.36.238-.162.562-.195.97-.097.42.098.783.26 1.09.488.307.217.409.434.307.651-.261.445-.614 1.188-1.056 2.23a59.495 59.495 0 0 0-1.21 3.172c-.363 1.075-.567 1.877-.612 2.409.25-.087.726-.646 1.43-1.676.704-1.03 1.487-2.3 2.35-3.808a75.921 75.921 0 0 0 2.418-4.507c.216-.358.562-.489 1.039-.39.488.086.92.281 1.294.585.375.304.51.597.409.879-.34.705-.721 1.638-1.141 2.799a35.286 35.286 0 0 0-1.022 3.433c-.261 1.117-.352 1.969-.272 2.555.874-.619 1.73-1.617 2.57-2.994.852-1.378 1.516-2.56 1.993-3.548Z"/>
  <path fill="#000" d="M58.867 11.977c.329-.022.68.06 1.055.244.375.173.659.342.852.504a.729.729 0 0 1-.136.13.189.189 0 0 1-.102.033.684.684 0 0 0-.086-.033.447.447 0 0 0-.17-.048 1.063 1.063 0 0 0-.306.016c-.477.12-1.175.445-2.095.976a38.71 38.71 0 0 0-2.673 1.66c-.863.586-1.442 1.02-1.737 1.302.068.108.136.211.204.309.159.217.312.44.46.667.431.76.545 1.519.34 2.278-.204.76-.624 1.47-1.26 2.132a8.688 8.688 0 0 1-2.18 1.643 5.554 5.554 0 0 1-2.792.554c-1.01-.055-1.777-.353-2.299-.895-.522-.554-.482-1.367.12-2.441.51-.803 1.169-1.557 1.975-2.262a32.472 32.472 0 0 1 2.469-1.985 41.716 41.716 0 0 0-.46-.586c-.352-.423-.67-.846-.953-1.27a4.944 4.944 0 0 1-.63-1.382 4.784 4.784 0 0 1 .391-3.239 6.311 6.311 0 0 1 2.248-2.554c.329-.196.72-.255 1.175-.18.454.066.885.196 1.294.391.42.196.738.375.954.537.578-.878 1.084-1.551 1.515-2.018.431-.466.789-.802 1.073-1.008.159-.087.363-.055.613.097s.494.369.732.651c.25.271.426.537.528.797.113.26.102.445-.034.554-.5.347-1.079.884-1.737 1.61a12.772 12.772 0 0 0-1.618 2.246c-.42.77-.539 1.394-.357 1.871-.273.055-.619-.054-1.04-.325a2.024 2.024 0 0 1-.833-1.123c-.069-.369-.023-.786.136-1.253.17-.466.323-.813.46-1.041-.568.01-1.068.38-1.499 1.106-.42.716-.658 1.546-.715 2.49-.046.933.198 1.73.732 2.392a45.36 45.36 0 0 0 1.243-.813 44.49 44.49 0 0 1 2.69-1.71c.943-.552 1.76-.894 2.453-1.024ZM48.105 22.375c.454-.055.965-.32 1.532-.798a6.85 6.85 0 0 0 1.43-1.643c.375-.608.483-1.112.324-1.513a1.995 1.995 0 0 1-.221.211 22.416 22.416 0 0 0-1.805 1.758 6.205 6.205 0 0 0-1.26 1.985Z"/>
  <path fill="#000" d="M74.294 2.962c.806.228 1.38.613 1.72 1.155.34.543.488 1.08.443 1.611-.034.532-.227.895-.58 1.09.126-.965-.703-1.6-2.485-1.903-1.782-.304-3.934-.272-6.454.097-1.794 2.365-3.355 4.996-4.683 7.892-1.317 2.897-2.089 5.403-2.316 7.518-.227 2.105.42 3.162 1.942 3.173-.795.727-1.783.857-2.963.39-1.192-.466-1.913-1.529-2.163-3.189-.057-1.453.466-3.569 1.567-6.346a62.054 62.054 0 0 1 4.035-8.299c-1.305.456-2.463 1.02-3.473 1.693-.205.108-.443.086-.715-.065a2.836 2.836 0 0 1-.784-.684c-.238-.293-.397-.57-.477-.83-.09-.271-.04-.455.154-.553 2.145-.955 4.478-1.72 6.998-2.294.92-1.356 1.783-2.43 2.589-3.222.329-.25.772-.26 1.328-.033.556.228.999.564 1.328 1.009.33.445.312.862-.051 1.253l-.239.228c1.987-.152 3.747-.05 5.28.309Zm-3.014 9.747c.17-.174.364-.239.58-.195a.87.87 0 0 1 .544.276c.148.141.188.282.12.424-.375.629-.898 1.513-1.567 2.652a12.047 12.047 0 0 1-2.418 2.961c-.942.846-1.783 1.389-2.52 1.628-.716.173-1.47.065-2.265-.326-.795-.401-1.186-.965-1.175-1.692.125-.966.54-2.284 1.243-3.954.715-1.67 1.51-3.087 2.384-4.247.216-.207.59-.255 1.124-.147.533.109 1.004.31 1.413.602.409.282.534.575.375.879-2.645 4.274-3.56 6.379-2.742 6.314.829-.076 2.464-1.801 4.904-5.175Zm-1.243-3.433c-.216.217-.528.303-.936.26a2.874 2.874 0 0 1-1.09-.374c-.33-.196-.483-.407-.46-.635.17-.64.403-1.258.698-1.855.307-.597.55-1.025.733-1.286.26-.249.67-.325 1.225-.227a3.612 3.612 0 0 1 1.448.57c.409.27.522.563.34.878-.113.152-.25.342-.408.57l-.8 1.106c-.284.38-.534.71-.75.993Z"/>
  <path fill="#000" d="M83.592 12.579a.36.36 0 0 1 .357-.18c.17 0 .34.05.511.147.182.098.324.201.426.31.113.108.159.195.136.26-.658 1.302-1.538 2.696-2.64 4.182-1.09 1.475-2.133 2.495-3.133 3.059-.408.174-.885.217-1.43.13a4.443 4.443 0 0 1-1.464-.537c-.443-.26-.71-.542-.8-.846-.103-.488-.074-1.134.084-1.936.17-.803.37-1.573.597-2.311.227-.749.397-1.275.51-1.579a.63.63 0 0 1 .034-.08c-.965.845-2.015 2.088-3.15 3.726-1.124 1.638-1.964 3-2.52 4.084-.17.26-.494.363-.97.309a3.515 3.515 0 0 1-1.329-.423c-.409-.239-.59-.494-.545-.765.295-1.106.806-2.685 1.533-4.735a39.37 39.37 0 0 1 2.64-5.907c.18-.293.436-.445.766-.456.34-.01.68.066 1.021.228.34.163.613.358.817.586.205.217.273.412.205.586a57.86 57.86 0 0 1-1.38 2.49c-.522.89-.834 1.48-.936 1.773a25.563 25.563 0 0 1 2.384-2.815c.851-.879 1.669-1.557 2.452-2.034.397-.195.852-.211 1.362-.049.511.152.937.402 1.277.749.341.336.449.678.324 1.025l-.307.7c-.454.976-.93 2.088-1.43 3.335-.488 1.237-.755 2.273-.8 3.108.908-.498 1.85-1.312 2.826-2.44a22.483 22.483 0 0 0 2.572-3.694ZM43.48 29.613c.114-.12.297-.15.548-.09.252.048.469.162.652.342.183.18.229.389.137.628a103.724 103.724 0 0 1-2.024 3.503 32.8 32.8 0 0 1-2.435 3.575c-.858 1.09-1.71 1.862-2.556 2.317-.732.3-1.424.227-2.076-.216-.64-.455-1.012-.988-1.114-1.598-.023-.395.028-.91.154-1.545a20.43 20.43 0 0 1 .429-1.796 30.14 30.14 0 0 0-1.235 1.67 23.8 23.8 0 0 1-2.968 3.7c-.308.252-.749.306-1.32.162a3.97 3.97 0 0 1-1.561-.79c-.469-.383-.698-.809-.686-1.276.206-1.856.817-3.778 1.835-5.766s2.144-3.532 3.379-4.634c.686-.55 1.31-.742 1.87-.575.571.168 1.149.473 1.732.916.206.144.423.294.652.45.286-.336.572-.683.857-1.042.195-.264.4-.527.618-.79.263-.264.629-.318 1.098-.162.48.155.886.419 1.218.79.331.36.417.718.257 1.078-1.498 2.742-2.447 4.844-2.848 6.305-.388 1.46-.406 2.197-.051 2.209.903-.06 2.716-2.515 5.437-7.365Zm-8.148 1.365c.069-.107.103-.275.103-.503 0-.227-.04-.437-.12-.628-.08-.204-.2-.324-.36-.36-.16-.047-.366.06-.618.324a15.894 15.894 0 0 0-2.556 3.916c-.686 1.46-1.052 2.503-1.097 3.125.56-.49 1.326-1.365 2.298-2.622.972-1.258 1.755-2.341 2.35-3.252Z"/>
  <path fill="#000" d="M53.016 29.829c.069-.084.172-.102.309-.054.137.036.28.114.429.234.148.12.263.245.343.377.091.12.114.221.068.305-.183.311-.389.677-.617 1.096a64.39 64.39 0 0 1-1.921 3.251 21.948 21.948 0 0 1-2.419 3.233c-.88.958-1.806 1.593-2.779 1.904-.571.132-1.24.078-2.006-.161a6.536 6.536 0 0 1-2.059-1.06c-.606-.48-.949-.994-1.029-1.545-.091-1.305.166-2.82.772-4.544.606-1.725 1.39-3.276 2.35-4.653.972-1.377 1.95-2.203 2.933-2.479a.963.963 0 0 1 .583.036c.183.072.406.18.67.324l.48.251.171-.27c.149-.215.297-.425.446-.628.149-.216.257-.341.326-.377.389-.144.812-.072 1.27.215.468.288.834.64 1.097 1.06.274.407.32.719.137.934a10.881 10.881 0 0 0-2.144 2.928c-.526 1.066-.726 1.886-.6 2.46-.149.169-.406.205-.772.109-.355-.096-.698-.3-1.03-.611-.32-.323-.497-.73-.531-1.222.011-.443.126-.976.343-1.598a12.04 12.04 0 0 1 .652-1.509c-.492.263-1.024.94-1.595 2.03a20.13 20.13 0 0 0-1.407 3.574c-.377 1.282-.537 2.36-.48 3.234.069.862.486 1.21 1.252 1.041.903-.287 1.812-1 2.727-2.137a48.331 48.331 0 0 0 2.83-3.952c.39-.599.79-1.197 1.201-1.796Z"/>
  <path fill="#000" d="M62.827 29.829c.069-.084.172-.102.309-.054.137.036.28.114.429.234.148.12.263.245.343.377.091.12.114.221.068.305-.183.311-.388.677-.617 1.096a64.322 64.322 0 0 1-1.921 3.251 21.94 21.94 0 0 1-2.419 3.233c-.88.958-1.806 1.593-2.778 1.904-.572.132-1.241.078-2.007-.161a6.536 6.536 0 0 1-2.058-1.06c-.607-.48-.95-.994-1.03-1.545-.091-1.305.166-2.82.772-4.544.606-1.725 1.39-3.276 2.35-4.653.972-1.377 1.95-2.203 2.933-2.479a.963.963 0 0 1 .583.036c.183.072.406.18.67.324l.48.251.171-.27c.149-.215.297-.425.446-.628.149-.216.257-.341.326-.377.389-.144.812-.072 1.27.215.468.288.834.64 1.097 1.06.274.407.32.719.137.934a10.881 10.881 0 0 0-2.144 2.928c-.526 1.066-.726 1.886-.6 2.46-.149.169-.406.205-.772.109-.355-.096-.698-.3-1.03-.611-.32-.323-.497-.73-.53-1.222.01-.443.125-.976.342-1.598a12.04 12.04 0 0 1 .652-1.509c-.492.263-1.023.94-1.595 2.03a20.123 20.123 0 0 0-1.407 3.574c-.377 1.282-.537 2.36-.48 3.234.069.862.486 1.21 1.252 1.041.903-.287 1.813-1 2.727-2.137a48.332 48.332 0 0 0 2.83-3.952c.39-.599.79-1.197 1.201-1.796Z"/>
  <path fill="#000" d="M80.494 24.638c1.338.706 2.384 1.496 3.139 2.37.766.863 1.012 2.174.738 3.934-.172.839-.532 2.078-1.081 3.719a96.133 96.133 0 0 0-1.424 4.76c-.446 1.629-.669 3.012-.669 4.15.012 1.149.43 1.766 1.252 1.85-.285.526-.811.694-1.578.502-.754-.18-1.435-.676-2.04-1.49-.607-.815-.813-1.899-.618-3.252.4-1.82 1.012-3.862 1.835-6.125.492-1.39.87-2.55 1.132-3.485.366-1.257.429-2.299.189-3.125-.24-.838-.915-1.473-2.024-1.904-.023 2.215-.698 4.826-2.024 7.831-1.315 3.006-2.807 5.078-4.477 6.216-.457.239-1.046.269-1.766.09a5.517 5.517 0 0 1-1.973-.953c-.595-.455-.955-.97-1.08-1.544-.104-.959.01-2.126.342-3.503-.377.467-.8 1.042-1.269 1.724a26.741 26.741 0 0 1-3.122 3.898c-.32.252-.771.305-1.355.162a3.85 3.85 0 0 1-1.578-.809c-.48-.395-.714-.826-.703-1.293.206-1.892.83-3.85 1.87-5.874 1.029-2.024 2.178-3.598 3.447-4.724.698-.563 1.333-.754 1.904-.575.583.168 1.167.48 1.75.934.217.144.44.294.669.45.103-.156.223-.348.36-.575.137-.216.274-.425.412-.63a5.39 5.39 0 0 1 .36-.484c.286-.264.663-.305 1.132-.126.48.168.88.437 1.2.808.332.372.412.737.24 1.096-1.383 2.443-2.218 4.539-2.504 6.287-.274 1.737-.246 2.766.086 3.09.389.251.995-.156 1.818-1.222.835-1.078 1.624-2.443 2.367-4.095.744-1.653 1.184-3.233 1.321-4.742.149-1.51-.274-2.575-1.27-3.198-.285-.191-.37-.497-.256-.916.114-.419.337-.832.668-1.24.343-.418.698-.712 1.064-.88.377-.179.68-.113.909.198.171.264.314.491.429.683.194.36.423.682.686.97.274.287.772.634 1.492 1.042Zm-12.23 6.394c.058-.107.092-.275.103-.503.023-.24 0-.46-.068-.664-.057-.216-.16-.341-.309-.377-.149-.048-.355.06-.617.323a16.443 16.443 0 0 0-2.59 3.988c-.698 1.496-1.07 2.562-1.115 3.197.548-.503 1.298-1.39 2.247-2.659a67.418 67.418 0 0 0 2.35-3.305Zm27.238 3.952c.23-.024.378.09.446.341.069.24.069.491 0 .755-.057.251-.165.395-.325.43-.492.073-.973.09-1.441.055-.47-.036-.995-.156-1.578-.36l-.155.324c-.251.61-.629 1.335-1.132 2.173-.491.839-1.109 1.491-1.852 1.958-.515.252-1.155.282-1.921.09a6.052 6.052 0 0 1-2.11-1.006c-.652-.49-1.075-1.048-1.27-1.67-.194-.862-.177-1.797.052-2.802.229-1.018.56-1.964.995-2.839.423-.874.852-1.526 1.286-1.957.15-.156.315-.3.498-.432l.24-.18a9.64 9.64 0 0 1-.154-1.508c0-.503.108-.982.325-1.437.32-.515.944-.773 1.87-.773.938-.012 1.853.276 2.745.863.891.587 1.435 1.503 1.629 2.748.091.85.08 1.682-.034 2.497a22.138 22.138 0 0 1-.463 2.46c.228.132.56.234.994.306.435.06.887.048 1.355-.036Zm-8.507 4.006c.846-.527 1.486-1.15 1.92-1.868.447-.719.819-1.491 1.116-2.318a5.18 5.18 0 0 1-1.801-2.137c-.16.191-.372.688-.635 1.49a19.523 19.523 0 0 0-.617 2.57c-.149.922-.143 1.676.017 2.263Zm3.55-6.197c.16-.455.246-.994.258-1.617a9.642 9.642 0 0 0-.086-1.76c-.08-.551-.189-.934-.326-1.15-.675 1.042-.623 2.55.154 4.527Z"/>
  <path fill="#FD5956" fill-rule="evenodd" d="M28.15 3.418c5.895 3.81 7.79 11.56 4.318 17.66l-8.315 14.61a11.754 11.754 0 0 1-8.169 5.782 120.916 120.916 0 0 1 3.884-7.458c1.77-3.138 3.503-5.52 5.197-7.15.885-.775 1.71-1.201 2.477-1.277.777-.075 1.29.124 1.538.599.27-.496.162-.922-.324-1.278-.475-.356-1.155-.588-2.04-.695-.874-.108-1.791-.038-2.752.21a5.302 5.302 0 0 0-2.493 1.44c-1.608 1.767-3.362 4.57-5.262 8.41a170.971 170.971 0 0 0-3.373 7.343 11.722 11.722 0 0 1-2.988-.662c.06-.366.118-.723.177-1.07.108-.592.194-1.105.26-1.536.032-.183.059-.372.08-.566.194-1.154.351-2.35.47-3.59.13-1.251.13-2.41 0-3.478-.13-1.078-.491-1.946-1.085-2.604-.583-.668-1.49-1.003-2.72-1.003-1.802.076-3.421.755-4.857 2.038-.78.697-1.482 1.48-2.11 2.349a6.36 6.36 0 0 1 1.306-4.846 6.376 6.376 0 0 0 1.224-2.594l1.62-7.456a17.794 17.794 0 0 1 4.74-8.74l2.606-2.632a13.234 13.234 0 0 1 16.59-1.806ZM7.385 37.068a150.98 150.98 0 0 0-.418 2.352c-.249-.18-.493-.373-.732-.576l-3.99-3.393a6.413 6.413 0 0 1-.791-.802c.119-.272.245-.544.379-.815.701-1.434 1.494-2.637 2.38-3.607.884-.97 1.753-1.488 2.606-1.553.658.011 1.057.459 1.198 1.343.14.873.13 1.957-.033 3.25a61.974 61.974 0 0 1-.599 3.801ZM17.83 17.922c2.073-.51 4.01-.784 5.808-.823-.136.102-.28.205-.428.31a50.126 50.126 0 0 1-3.674 2.542c-1.408.888-3.019 1.655-4.833 2.302-3.058 1.011-5.146 1.462-6.265 1.35-1.118-.11-1.351-.545-.699-1.304.652-.76 2.107-1.615 4.364-2.569a41.257 41.257 0 0 1 5.727-1.808Zm-3.97-2.514c.734.15 1.388.147 1.96-.008-.793-.048-1.41-.294-1.853-.736-.443-.443-.61-.935-.5-1.477.282-1.026 1.043-1.952 2.284-2.78 1.245-.835 2.699-1.512 4.362-2.031 1.663-.52 3.263-.829 4.8-.927 1.537-.098 2.745.075 3.624.52.73.438 1.047 1.02.95 1.749-.085.724-.392 1.484-.923 2.278-.526.787-1.08 1.49-1.662 2.11-.569.616-.97 1.03-1.205 1.244a36.54 36.54 0 0 0-6.984.22c-2.241.29-4.234.756-5.98 1.397-2.852 1.073-4.853 2.16-6.003 3.263-.726.661-1.18 1.297-1.364 1.91-.188.62-.144 1.182.131 1.686.578 1.034 1.827 1.7 3.746 1.999 1.918.298 4.188.024 6.81-.823a32.484 32.484 0 0 0 6.843-3.406c2.092-1.383 3.796-2.713 5.113-3.989.41-.046.93-.024 1.557.064a12.44 12.44 0 0 1 1.952.457 2.706 2.706 0 0 0-.569-1.163c-.293-.38-.734-.693-1.324-.94.818-.966 1.432-1.931 1.843-2.895.423-.968.5-1.932.229-2.892-.258-.964-.992-1.919-2.202-2.866-1.45-1.06-3.113-1.666-4.987-1.816-1.874-.15-3.748.02-5.623.508s-3.538 1.176-4.988 2.062c-1.446.878-2.472 1.827-3.08 2.847-.404.765-.49 1.455-.258 2.07.246.61.677 1.118 1.294 1.525a5.8 5.8 0 0 0 2.007.84Z" clip-rule="evenodd"/>
</svg>
